<?xml version="1.0" standalone="no"?>
<!DOCTYPE svg PUBLIC "-//W3C//DTD SVG 20010904//EN"
 "http://www.w3.org/TR/2001/REC-SVG-20010904/DTD/svg10.dtd">
<svg version="1.0" xmlns="http://www.w3.org/2000/svg"
 width="800.000000pt" height="700.000000pt" viewBox="0 0 800.000000 700.000000"
 preserveAspectRatio="xMidYMid meet">

<g transform="translate(0.000000,700.000000) scale(0.100000,-0.100000)"
fill="#000000" stroke="none">
<path d="M0 3500 l0 -3500 4000 0 4000 0 0 3500 0 3500 -4000 0 -4000 0 0
-3500z m3435 2566 c55 -25 94 -64 115 -115 10 -26 16 -30 34 -24 11 5 48 8 82
8 139 -1 234 -113 234 -274 l0 -67 73 0 c109 1 182 -45 226 -144 20 -43 21
-64 21 -471 0 -414 -1 -426 -20 -447 -31 -33 -92 -30 -119 4 -20 26 -21 37
-21 436 l0 410 -29 29 c-32 32 -47 35 -84 18 -43 -19 -47 -46 -47 -283 0 -211
-1 -225 -21 -250 -26 -33 -88 -37 -119 -6 -19 19 -20 33 -20 413 0 353 -2 395
-18 427 -10 21 -27 37 -42 40 -32 8 -78 -7 -90 -30 -6 -11 -10 -172 -10 -405
0 -459 -1 -464 -86 -467 -29 -1 -42 5 -61 26 l-23 27 0 480 0 480 -25 24 c-35
35 -76 33 -109 -6 l-26 -31 0 -474 0 -475 -25 -24 c-15 -16 -36 -25 -55 -25
-19 0 -40 9 -55 25 l-25 24 0 400 0 400 -23 27 c-17 20 -33 27 -57 27 -24 0
-40 -7 -57 -27 l-23 -27 0 -633 0 -633 76 -38 c132 -67 211 -168 236 -302 15
-79 6 -109 -37 -130 -28 -13 -39 -14 -63 -4 -32 13 -46 40 -57 106 -15 90
-100 174 -209 206 -119 36 -110 3 -116 418 l-5 359 -23 25 c-70 74 -175 51
-211 -46 -17 -44 -14 -708 3 -772 27 -101 53 -136 271 -369 61 -65 115 -127
122 -139 9 -17 12 -273 13 -1099 l0 -1078 495 0 495 0 2 626 3 626 24 19 c31
25 86 25 109 -1 16 -19 17 -70 22 -643 l5 -622 48 -5 c80 -10 82 -14 85 -225
l3 -185 -30 -30 -30 -30 -741 2 -742 3 -24 29 c-25 28 -25 29 -22 212 3 210 5
214 85 224 l48 5 -3 1055 -2 1054 -23 25 c-12 14 -54 59 -93 100 -152 161
-196 217 -234 296 -57 118 -62 172 -58 590 3 355 3 361 27 413 60 134 210 199
358 156 l21 -6 4 229 c5 262 12 294 81 360 63 61 149 85 224 64 31 -9 33 -8
54 35 52 109 197 155 314 100z m1805 -966 c11 -6 78 -85 150 -176 130 -166
143 -190 124 -239 -9 -23 -61 -47 -87 -40 -12 4 -44 31 -72 60 l-50 54 -28
-23 -28 -22 20 -45 c36 -79 25 -144 -36 -207 -40 -43 -42 -47 -28 -66 9 -12
26 -36 40 -54 41 -57 50 -153 21 -224 -7 -16 42 -79 307 -388 119 -139 139
-174 145 -261 5 -71 -7 -122 -42 -177 -18 -27 -222 -198 -306 -255 -54 -37
-56 -35 -380 287 l-305 304 -37 -25 c-21 -14 -38 -31 -38 -37 0 -7 14 -77 30
-156 34 -163 36 -196 15 -246 -13 -32 -13 -40 5 -88 34 -91 101 -171 175 -209
17 -8 56 -22 88 -30 192 -50 315 -224 333 -472 13 -186 -51 -359 -184 -493
-43 -44 -86 -131 -107 -220 -14 -59 -17 -99 -12 -215 3 -78 9 -152 13 -164 l6
-23 340 0 c355 0 386 -3 402 -45 12 -32 6 -69 -16 -92 l-21 -23 -649 0 -649 0
-24 25 c-27 26 -31 51 -14 88 19 42 47 47 263 47 l202 0 -7 52 c-13 89 -10
292 5 370 26 134 73 225 179 346 82 94 110 170 111 297 1 140 -26 217 -103
296 -47 47 -65 59 -111 69 -84 19 -174 66 -229 119 -58 56 -126 158 -142 212
-10 33 -16 38 -52 43 -61 10 -97 37 -167 126 -35 44 -67 80 -73 80 -5 0 -40
-25 -77 -55 -95 -76 -141 -98 -205 -98 -73 0 -137 33 -183 94 -21 26 -41 48
-46 48 -4 1 -36 -20 -70 -45 -79 -60 -96 -66 -181 -63 -41 1 -83 -3 -101 -11
-42 -18 -80 -6 -99 31 -20 38 -12 79 21 109 18 18 24 34 24 68 0 73 23 106
141 198 95 73 114 84 149 84 40 0 41 -1 175 -170 75 -94 143 -174 151 -177 8
-3 26 -1 39 5 13 6 151 112 307 235 156 123 409 322 563 442 154 120 283 223
287 229 16 23 7 54 -25 91 l-34 39 -304 -239 c-167 -131 -347 -273 -400 -314
-53 -42 -131 -103 -173 -136 -43 -33 -105 -82 -139 -108 -95 -76 -123 -82
-168 -38 -39 39 -37 72 6 119 30 34 33 41 21 57 -12 17 -16 15 -65 -24 -29
-22 -60 -42 -69 -42 -40 -3 -58 4 -79 27 -41 45 -26 90 47 146 l48 38 -14 37
c-16 47 -17 80 -3 124 16 47 35 66 184 183 72 56 195 153 275 216 490 385 683
532 712 543 18 8 47 12 63 11 17 -1 38 -2 47 -3 9 -1 36 -16 61 -35 l44 -34
29 23 c32 26 33 21 -20 95 -38 53 -39 95 -2 127 29 25 56 29 86 13z m-2976
-1684 c30 -22 51 -63 72 -133 2 -9 23 -13 59 -13 73 0 123 -26 153 -78 46 -83
12 -176 -85 -231 -15 -8 -15 -14 1 -70 19 -68 12 -118 -24 -163 -47 -60 -158
-65 -228 -9 l-41 32 -49 -36 c-42 -30 -57 -35 -103 -35 -117 0 -177 91 -139
211 l18 58 -40 27 c-61 42 -82 79 -82 141 0 91 57 145 161 153 l66 5 15 49
c17 54 68 112 104 119 49 11 108 -1 142 -27z m1381 -471 c16 -15 25 -36 25
-55 0 -19 -9 -40 -25 -55 -24 -25 -26 -25 -208 -25 -171 0 -186 1 -211 21 -37
29 -37 89 0 118 25 20 40 21 211 21 182 0 184 0 208 -25z m-165 -235 c28 -15
40 -65 40 -165 0 -100 -12 -150 -40 -165 -29 -15 -76 -12 -100 8 -20 16 -21
26 -22 137 0 161 -1 152 22 175 21 21 69 26 100 10z m2428 -130 c37 -23 69
-71 78 -116 6 -30 8 -31 70 -37 104 -10 156 -51 170 -134 8 -55 -14 -102 -74
-152 l-50 -43 14 -34 c22 -52 18 -125 -9 -165 -51 -76 -145 -89 -231 -30 l-47
33 -47 -31 c-84 -53 -146 -53 -207 0 -44 39 -60 91 -45 151 6 24 14 52 16 63
4 15 -6 29 -40 54 -77 58 -99 145 -53 211 35 52 66 69 141 77 l69 8 13 46 c9
31 27 59 54 83 35 32 46 36 93 36 34 0 63 -7 85 -20z m-2294 -291 c56 -26 53
-112 -5 -141 -47 -25 -304 -26 -350 -3 -55 29 -61 97 -12 135 23 18 41 20 184
20 97 0 168 -4 183 -11z m19 -287 c9 -10 20 -32 23 -50 5 -26 1 -36 -24 -62
-30 -30 -31 -30 -140 -30 l-110 0 -4 -69 c-5 -87 -23 -111 -83 -111 -71 0 -80
19 -80 170 0 179 -12 170 220 170 163 0 184 -2 198 -18z"/>
<path d="M2792 1358 l3 -73 630 0 630 0 3 73 3 72 -636 0 -636 0 3 -72z"/>
<path d="M4665 4500 c-176 -138 -418 -328 -537 -421 l-217 -170 34 -47 c18
-26 49 -65 67 -86 l35 -40 529 414 c291 227 534 420 541 428 9 11 0 29 -49 90
-33 43 -66 78 -72 80 -6 1 -155 -110 -331 -248z"/>
<path d="M4976 3859 l-157 -122 52 -53 53 -53 39 22 c59 32 133 111 164 175
28 57 38 142 17 149 -6 2 -82 -51 -168 -118z"/>
<path d="M5265 3732 c-27 -52 -139 -175 -193 -212 l-22 -15 49 -54 49 -54 50
32 c84 54 136 139 148 243 6 48 3 61 -15 87 -12 17 -25 31 -29 31 -4 0 -20
-26 -37 -58z"/>
<path d="M5472 3507 c-31 -72 -82 -139 -141 -184 -28 -21 -50 -43 -50 -49 -1
-14 45 -57 57 -53 26 10 192 147 206 171 28 46 15 108 -31 150 -19 17 -20 16
-41 -35z"/>
<path d="M4402 3410 l-52 -38 60 -76 c55 -70 81 -89 93 -68 5 7 -37 210 -45
217 -2 2 -27 -14 -56 -35z"/>
<path d="M3545 3407 c-77 -53 -102 -91 -70 -103 13 -5 56 23 119 77 4 4 2 16
-6 27 -13 20 -14 20 -43 -1z"/>
<path d="M2155 3220 c-14 -66 -74 -110 -149 -110 l-45 0 44 -44 c57 -57 69
-114 39 -190 -6 -16 -1 -15 40 9 39 23 55 27 100 23 34 -3 65 -13 86 -28 31
-22 33 -22 26 -4 -30 78 -18 136 41 192 l46 42 -47 0 c-76 0 -134 43 -151 113
-9 35 -22 34 -30 -3z"/>
<path d="M5815 2379 c-15 -67 -88 -119 -170 -119 l-30 0 33 -22 c17 -13 42
-43 54 -67 19 -39 20 -50 11 -95 -6 -28 -9 -53 -7 -55 1 -2 16 6 32 18 16 11
47 23 69 27 38 6 64 -2 146 -44 4 -2 3 8 -3 23 -25 65 -8 129 46 179 l36 33
-51 7 c-61 8 -126 59 -136 106 -9 42 -22 46 -30 9z"/>
</g>
</svg>
